<svg width="8" height="6" viewBox="0 0 8 6" fill="none" xmlns="http://www.w3.org/2000/svg">
<path d="M4.05905 0.162112C4.02465 0.112147 3.97862 0.0712933 3.92492 0.0430702C3.87122 0.014847 3.81147 0.000100458 3.7508 0.000100464C3.69014 0.000100469 3.63038 0.014847 3.57669 0.0430702C3.52299 0.0712933 3.47695 0.112147 3.44255 0.162112L0.067552 5.03711C0.0284864 5.09334 0.00557796 5.1592 0.00131461 5.22754C-0.00294875 5.29587 0.0115965 5.36407 0.0433702 5.42472C0.075144 5.48536 0.122931 5.53615 0.181539 5.57154C0.240147 5.60694 0.307335 5.6256 0.375803 5.62549L7.1258 5.62549C7.19411 5.62521 7.26105 5.60631 7.31942 5.57083C7.37779 5.53535 7.42539 5.48462 7.45709 5.42412C7.48879 5.36361 7.50339 5.2956 7.49934 5.22741C7.49528 5.15923 7.47271 5.09343 7.43405 5.03711L4.05905 0.162112Z" fill="#00498D"/>
</svg>
